<?xml version="1.0" encoding="UTF-8"?>
<svg xmlns="http://www.w3.org/2000/svg" xmlns:xlink="http://www.w3.org/1999/xlink" width="128px" height="128px" viewBox="0 0 128 128" version="1.1">
<g id="surface1">
<path style=" stroke:none;fill-rule:nonzero;fill:rgb(28.235294%,94.901961%,3.921569%);fill-opacity:1;" d="M 94.96875 5.953125 L 94.96875 0 L 33.03125 0 L 33.03125 5.953125 L 0 5.953125 L 0 128 L 128 128 L 128 5.953125 Z M 41.289062 5.953125 L 86.710938 5.953125 L 86.710938 8.929688 L 82.582031 8.929688 L 82.582031 14.882812 L 45.417969 14.882812 L 45.417969 8.929688 L 41.289062 8.929688 Z M 119.742188 122.046875 L 8.257812 122.046875 L 8.257812 11.90625 L 33.03125 11.90625 L 33.03125 14.882812 L 37.160156 14.882812 L 37.160156 20.835938 L 90.839844 20.835938 L 90.839844 14.882812 L 94.96875 14.882812 L 94.96875 11.90625 L 119.742188 11.90625 Z M 119.742188 122.046875 "/>
<path style=" stroke:none;fill-rule:nonzero;fill:rgb(28.235294%,94.901961%,3.921569%);fill-opacity:1;" d="M 16.515625 32.746094 L 78.453125 32.746094 L 78.453125 38.699219 L 16.515625 38.699219 Z M 16.515625 32.746094 "/>
<path style=" stroke:none;fill-rule:nonzero;fill:rgb(28.235294%,94.901961%,3.921569%);fill-opacity:1;" d="M 16.515625 74.417969 L 70.195312 74.417969 L 70.195312 80.371094 L 16.515625 80.371094 Z M 16.515625 74.417969 "/>
<path style=" stroke:none;fill-rule:nonzero;fill:rgb(28.235294%,94.901961%,3.921569%);fill-opacity:1;" d="M 16.515625 53.582031 L 86.710938 53.582031 L 86.710938 59.535156 L 16.515625 59.535156 Z M 16.515625 53.582031 "/>
<path style=" stroke:none;fill-rule:nonzero;fill:rgb(28.235294%,94.901961%,3.921569%);fill-opacity:1;" d="M 16.515625 95.253906 L 78.453125 95.253906 L 78.453125 101.210938 L 16.515625 101.210938 Z M 16.515625 95.253906 "/>
<path style=" stroke:none;fill-rule:nonzero;fill:rgb(28.235294%,94.901961%,3.921569%);fill-opacity:1;" d="M 45.417969 5.953125 L 82.582031 5.953125 L 82.582031 14.882812 L 45.417969 14.882812 Z M 45.417969 5.953125 "/>
</g>
</svg>
